<svg width="281" height="111" viewBox="0 0 281 111" fill="none" xmlns="http://www.w3.org/2000/svg">
    <path d="M92.9364 42.4577C83.0234 38.8837 64.1038 36.9008 53.2845 58.9819C46.1424 55.4079 51.3019 44.9599 51.3019 44.9599C31.9527 52.8065 26.2928 79.977 43.5886 95.4342C43.6764 95.512 43.748 95.6063 43.7993 95.7117C43.8507 95.8172 43.8807 95.9317 43.8877 96.0488C43.8947 96.1659 43.8786 96.2832 43.8402 96.394C43.8019 96.5049 43.742 96.6071 43.6642 96.6948C43.5858 96.7819 43.491 96.8527 43.3852 96.9032C43.2794 96.9537 43.1647 96.9829 43.0477 96.989C42.9306 96.9951 42.8135 96.9781 42.703 96.939C42.5926 96.8999 42.4909 96.8393 42.4038 96.7609C39.4441 94.0981 27.7373 82.6823 27.7373 68.7972C27.7373 52.9057 40.1663 29.3611 65.029 29.3611C83.1509 29.3611 92.9364 42.4577 92.9364 42.4577Z" fill="#27438A"/>
    <path d="M45.5006 98.673C45.4271 98.6141 45.3766 98.5313 45.358 98.4389C45.3394 98.3465 45.3539 98.2506 45.3989 98.1678C45.4439 98.0851 45.5166 98.0208 45.6043 97.9863C45.6919 97.9517 45.7889 97.9492 45.8783 97.979C58.2789 101.803 75.7447 97.0583 75.7447 83.9712C75.7447 77.8856 70.9817 78.7448 71.3122 66.0306C75.6125 76.8091 85.9456 72.8433 87.3145 84.9437C93.7957 76.5447 99.1535 81.6389 105.101 78.7259C93.9374 101.142 58.8171 110.353 45.5006 98.673Z" fill="#27438A"/>
    <path d="M103.775 36.0746C109.222 25.4661 96.4389 7.23755 70.6322 7.23755C51.9344 7.23755 44.122 13.0399 44.122 13.0399V12.445C37.5134 8.06376 16.8944 4.0413 7.77441 17.7753C20.0807 17.7753 24.938 18.8375 24.938 25.23C24.9475 33.7565 10.3848 44.6483 18.0792 67.6122C18.0792 67.6122 25.1835 32.8075 38.9106 27.1279C52.6377 21.4483 75.6075 20.0225 81.5223 23.9317C87.437 27.8408 103.775 36.0746 103.775 36.0746Z" fill="#27438A"/>
    <path d="M38.0845 98.1583C28.1432 86.9077 22.9318 81.7002 22.9318 66.0542C22.9318 53.628 33.704 24.8618 65.1895 24.8618C96.675 24.8618 99.3987 47.5896 103.425 47.5896C105.106 47.5896 106.73 45.9325 106.73 43.095C106.73 36.4853 91.3456 16.8121 61.635 16.8121C41.6296 16.8121 16.9463 35.2862 16.9463 63.1082C16.951 84.0939 38.0845 98.1583 38.0845 98.1583Z" fill="#5873B8"/>
    <path d="M92.4268 50.1722H99.3658C100.494 50.1314 101.618 50.3209 102.67 50.7293C103.487 51.0795 104.205 51.6279 104.757 52.325C105.319 53.0426 105.728 53.8688 105.956 54.7517C106.205 55.7072 106.329 56.6913 106.324 57.6789C106.38 58.9615 106.193 60.2431 105.772 61.4558C105.433 62.3053 104.91 63.0695 104.242 63.6937C103.651 64.2633 102.927 64.677 102.137 64.8976C101.23 65.1548 100.294 65.2929 99.3517 65.3083H92.4268V50.1722ZM97.1 53.595V61.8477H98.2424C98.9534 61.8945 99.6659 61.7833 100.329 61.5219C100.772 61.2668 101.114 60.8666 101.297 60.3888C101.574 59.543 101.693 58.6529 101.646 57.7639C101.646 56.1587 101.385 55.057 100.862 54.459C100.343 53.8689 99.4744 53.5714 98.266 53.5714L97.1 53.595Z" fill="#231F20"/>
    <path d="M108.628 57.7402C108.628 55.2695 109.315 53.3479 110.69 51.9756C112.066 50.6033 113.981 49.9156 116.435 49.9125C118.953 49.9125 120.891 50.5876 122.251 51.9379C123.61 53.2929 124.29 55.1813 124.29 57.6033C124.347 59.1034 124.041 60.5951 123.398 61.9515C122.818 63.0663 121.921 63.9845 120.821 64.5907C119.524 65.26 118.077 65.5851 116.619 65.5349C115.16 65.5865 113.707 65.3073 112.371 64.7181C111.229 64.1498 110.283 63.2518 109.657 62.1404C108.926 60.7924 108.57 59.2727 108.628 57.7402ZM113.301 57.7402C113.301 59.2636 113.584 60.3652 114.151 61.0451C114.449 61.3596 114.809 61.6105 115.207 61.7827C115.605 61.9549 116.034 62.0447 116.468 62.047C116.902 62.0492 117.332 61.9636 117.732 61.7955C118.132 61.6274 118.493 61.3802 118.795 61.0687C119.349 60.4108 119.625 59.2384 119.622 57.5514C119.622 56.1256 119.334 55.0853 118.758 54.4307C118.467 54.1026 118.107 53.8437 117.704 53.673C117.3 53.5022 116.863 53.424 116.426 53.4439C115.996 53.4275 115.569 53.509 115.175 53.6825C114.782 53.8559 114.433 54.1166 114.155 54.4448C113.584 55.12 113.291 56.22 113.291 57.7638L113.301 57.7402Z" fill="#231F20"/>
    <path d="M127.231 50.1721H131.904V61.5691H139.193V65.2894H127.231V50.1721Z" fill="#231F20"/>
    <path d="M141.718 50.1721H149.483C151.173 50.1721 152.443 50.5734 153.283 51.376C154.123 52.1786 154.548 53.3259 154.548 54.8131C154.584 55.4731 154.48 56.1334 154.243 56.7503C154.005 57.3672 153.639 57.9266 153.17 58.3917C152.254 59.251 150.853 59.6806 148.968 59.6806H146.41V65.2894H141.718V50.1721ZM146.41 56.6165H147.557C148.222 56.6777 148.887 56.5112 149.445 56.1444C149.622 55.9987 149.763 55.8144 149.858 55.6058C149.953 55.3972 149.999 55.1696 149.993 54.9405C149.998 54.7185 149.959 54.4977 149.878 54.2909C149.797 54.0842 149.676 53.8957 149.521 53.7366C149.206 53.4219 148.611 53.2645 147.736 53.2645H146.405L146.41 56.6165Z" fill="#231F20"/>
    <path d="M157.432 50.1721H162.105V55.4599H167.208V50.1721H171.9V65.2799H167.208V59.1754H162.105V65.2894H157.432V50.1721Z" fill="#231F20"/>
    <path d="M175.602 50.1721H180.28V65.2799H175.602V50.1721Z" fill="#231F20"/>
    <path d="M184.098 50.1721H188.46L194.153 58.5428V50.1721H198.557V65.2799H194.153L188.488 56.9801V65.2799H184.098V50.1721Z" fill="#231F20"/>
    <path d="M209.527 50.1721H217.293C218.989 50.1721 220.255 50.5734 221.092 51.376C221.937 52.1833 222.358 53.3259 222.358 54.8131C222.395 55.4733 222.292 56.1339 222.054 56.7509C221.816 57.368 221.45 57.9273 220.979 58.3917C220.063 59.251 218.663 59.6806 216.778 59.6806H214.219V65.2894H209.527V50.1721ZM214.219 56.6165H215.367C216.031 56.6773 216.697 56.5109 217.255 56.1444C217.431 55.998 217.571 55.8136 217.666 55.6052C217.761 55.3967 217.808 55.1695 217.802 54.9405C217.808 54.7186 217.768 54.4978 217.687 54.2911C217.606 54.0844 217.485 53.8959 217.33 53.7366C217.016 53.4219 216.421 53.2645 215.546 53.2645H214.215L214.219 56.6165Z" fill="#5873B8"/>
    <path d="M224.638 57.7402C224.638 55.2695 225.324 53.3479 226.696 51.9756C228.068 50.6033 229.983 49.9156 232.441 49.9125C234.958 49.9125 236.897 50.5876 238.256 51.9379C239.62 53.2929 240.3 55.1813 240.3 57.6033C240.357 59.1034 240.051 60.5951 239.408 61.9515C238.828 63.0663 237.931 63.9845 236.831 64.5907C235.534 65.26 234.088 65.5851 232.629 65.5349C231.17 65.5875 229.717 65.3082 228.381 64.7181C227.237 64.1513 226.289 63.2531 225.662 62.1404C224.933 60.792 224.579 59.2722 224.638 57.7402ZM229.306 57.7402C229.306 59.2636 229.591 60.3652 230.161 61.0451C230.459 61.3596 230.819 61.6105 231.217 61.7827C231.615 61.9549 232.044 62.0447 232.478 62.047C232.912 62.0492 233.342 61.9636 233.742 61.7955C234.142 61.6274 234.504 61.3802 234.806 61.0687C235.353 60.4108 235.627 59.2384 235.627 57.5514C235.627 56.135 235.344 55.0869 234.768 54.4307C234.476 54.1028 234.115 53.844 233.711 53.6733C233.307 53.5026 232.869 53.4243 232.431 53.4439C232.002 53.4275 231.574 53.509 231.18 53.6825C230.787 53.8559 230.438 54.1166 230.161 54.4448C229.594 55.12 229.306 56.22 229.306 57.7638V57.7402Z" fill="#5873B8"/>
    <path d="M242.632 57.7402C242.632 55.2695 243.32 53.3479 244.695 51.9756C246.07 50.6033 247.985 49.9156 250.44 49.9125C252.957 49.9125 254.896 50.5876 256.255 51.9379C257.615 53.2929 258.295 55.1813 258.295 57.6033C258.352 59.1034 258.046 60.5951 257.402 61.9515C256.822 63.0663 255.926 63.9845 254.825 64.5907C253.529 65.26 252.082 65.5851 250.624 65.5349C249.164 65.5865 247.712 65.3073 246.375 64.7181C245.233 64.1498 244.288 63.2518 243.661 62.1404C242.927 60.7934 242.572 59.2729 242.632 57.7402ZM247.305 57.7402C247.305 59.2636 247.589 60.3652 248.155 61.0451C248.454 61.3596 248.813 61.6105 249.211 61.7827C249.61 61.9549 250.039 62.0447 250.472 62.047C250.906 62.0492 251.336 61.9636 251.736 61.7955C252.136 61.6274 252.498 61.3802 252.8 61.0687C253.348 60.4124 253.626 59.2416 253.626 57.5514C253.626 56.1256 253.338 55.0853 252.762 54.4307C252.468 54.099 252.104 53.838 251.695 53.6672C251.286 53.4963 250.844 53.42 250.402 53.4439C249.973 53.4282 249.546 53.5101 249.154 53.6835C248.761 53.8569 248.413 54.1172 248.136 54.4448C247.607 55.12 247.324 56.22 247.324 57.7638L247.305 57.7402Z" fill="#5873B8"/>
    <path d="M261.254 50.1721H265.923V61.5691H273.216V65.2894H261.254V50.1721Z" fill="#5873B8"/>
    <path d="M95.415 74.543L97.8838 74.3919C97.914 74.7197 98.026 75.0346 98.2096 75.3078C98.3467 75.4776 98.5223 75.6123 98.7217 75.7009C98.9211 75.7896 99.1387 75.8296 99.3566 75.8177C99.6634 75.837 99.9669 75.7448 100.211 75.558C100.304 75.4857 100.379 75.3934 100.432 75.288C100.484 75.1826 100.512 75.0667 100.513 74.949C100.511 74.8374 100.485 74.7276 100.436 74.6273C100.387 74.527 100.317 74.4386 100.23 74.3683C99.8254 74.1168 99.3713 73.9558 98.8987 73.8962C98.0188 73.7495 97.185 73.4004 96.463 72.8764C96.2275 72.6776 96.0395 72.4285 95.9129 72.1474C95.7862 71.8664 95.7242 71.5605 95.7313 71.2523C95.7319 70.8168 95.8616 70.3912 96.1042 70.0295C96.3845 69.6225 96.7786 69.3072 97.2371 69.1231C97.8964 68.8789 98.5976 68.7681 99.3 68.7973C100.16 68.7421 101.016 68.9496 101.755 69.3922C102.047 69.6177 102.287 69.9026 102.46 70.2282C102.634 70.5538 102.736 70.9126 102.76 71.2806L100.315 71.4223C100.307 71.2659 100.267 71.1128 100.197 70.9725C100.128 70.8321 100.031 70.7075 99.9113 70.6062C99.7919 70.5049 99.653 70.4291 99.5032 70.3835C99.3535 70.338 99.1959 70.3235 99.0404 70.3411C98.7978 70.3213 98.5563 70.39 98.3606 70.5347C98.2882 70.5902 98.2296 70.6617 98.1895 70.7436C98.1494 70.8255 98.1288 70.9156 98.1293 71.0068C98.1315 71.0777 98.1495 71.1472 98.1822 71.2101C98.2149 71.2731 98.2614 71.3278 98.3181 71.3703C98.5839 71.5341 98.8817 71.6388 99.1914 71.6772C100.03 71.8299 100.847 72.0802 101.627 72.4232C102.067 72.6287 102.439 72.9565 102.699 73.3674C102.923 73.7423 103.039 74.1721 103.034 74.6091C103.03 75.1426 102.866 75.6626 102.562 76.101C102.256 76.5596 101.823 76.9189 101.316 77.1349C100.673 77.3869 99.9854 77.5057 99.2953 77.4843C97.8791 77.4843 96.8784 77.2105 96.3261 76.6628C95.7776 76.0886 95.4542 75.3361 95.415 74.543Z" fill="#231F20"/>
    <path d="M120.056 68.9294H127.009V70.7235H122.657V72.0596H126.693V73.7687H122.657V75.4258H127.136V77.3143H120.056V68.9294Z" fill="#231F20"/>
    <path d="M144.286 77.3237V68.9294H148.61C149.23 68.9051 149.851 68.9751 150.451 69.1371C150.868 69.2694 151.229 69.5389 151.475 69.902C151.662 70.1681 151.791 70.4699 151.856 70.7884C151.92 71.107 151.918 71.4354 151.85 71.7532C151.782 72.071 151.649 72.3713 151.459 72.6352C151.27 72.8991 151.027 73.1211 150.748 73.2871C150.464 73.4454 150.156 73.5585 149.837 73.6223C150.075 73.6942 150.302 73.7974 150.512 73.9291C150.666 74.062 150.805 74.2107 150.927 74.3729C151.063 74.5355 151.184 74.7093 151.291 74.8923L152.546 77.3284H149.639L148.223 74.7553C148.111 74.5096 147.951 74.2894 147.75 74.1085C147.565 73.9801 147.344 73.9124 147.118 73.915H146.887V77.3237H144.286ZM146.891 72.3287H147.986C148.225 72.3202 148.462 72.2886 148.695 72.2342C148.862 72.2039 149.012 72.1111 149.115 71.9746C149.218 71.8389 149.275 71.6731 149.275 71.5024C149.282 71.3861 149.263 71.2697 149.219 71.1619C149.174 71.054 149.107 70.9574 149.02 70.8792C148.737 70.7083 148.406 70.6323 148.076 70.6621H146.934L146.891 72.3287Z" fill="#231F20"/>
    <path d="M168.072 68.9294H170.782L172.67 74.9726L174.535 68.9294H177.169L174.048 77.3284H171.216L168.072 68.9294Z" fill="#231F20"/>
    <path d="M193.841 68.9294H196.442V77.3284H193.841V68.9294Z" fill="#231F20"/>
    <path d="M219.615 73.8867L221.891 74.5713C221.767 75.1504 221.521 75.6962 221.168 76.1718C220.846 76.5838 220.426 76.9084 219.946 77.116C219.355 77.3527 218.722 77.4636 218.086 77.4418C217.32 77.469 216.558 77.3338 215.848 77.0452C215.22 76.7317 214.7 76.2387 214.352 75.6289C213.903 74.8514 213.685 73.9621 213.724 73.0652C213.724 71.6772 214.092 70.6102 214.829 69.8643C215.613 69.2325 216.569 68.8499 217.572 68.7658C218.576 68.6817 219.582 68.8998 220.46 69.3922C221.113 69.8835 221.587 70.5749 221.81 71.3609L219.502 71.9038C219.448 71.704 219.362 71.5143 219.247 71.342C219.107 71.1462 218.921 70.9875 218.705 70.8797C218.49 70.7719 218.251 70.7183 218.01 70.7235C217.743 70.7127 217.477 70.7725 217.24 70.8968C217.003 71.0211 216.803 71.2056 216.66 71.4317C216.386 71.9372 216.261 72.5104 216.301 73.0841C216.301 74.0284 216.443 74.6563 216.726 75.0009C217.025 75.3144 217.433 75.4998 217.865 75.5183C218.297 75.5368 218.72 75.3869 219.044 75.1001C219.339 74.7534 219.536 74.3346 219.615 73.8867Z" fill="#231F20"/>
    <path d="M238.855 68.9294H245.809V70.7235H241.456V72.0596H245.492V73.7687H241.456V75.4258H245.936V77.3143H238.855V68.9294Z" fill="#231F20"/>
    <path d="M262.609 74.543L265.078 74.3919C265.104 74.7204 265.217 75.0362 265.403 75.3078C265.541 75.4776 265.716 75.6123 265.916 75.7009C266.115 75.7896 266.333 75.8296 266.55 75.8177C266.857 75.8362 267.16 75.744 267.405 75.558C267.498 75.4857 267.573 75.3934 267.625 75.288C267.678 75.1826 267.706 75.0667 267.707 74.949C267.705 74.8369 267.678 74.7266 267.628 74.6262C267.579 74.5257 267.507 74.4377 267.419 74.3683C267.017 74.1153 266.564 73.9541 266.093 73.8962C265.213 73.7495 264.379 73.4004 263.657 72.8764C263.421 72.6776 263.233 72.4285 263.107 72.1474C262.98 71.8664 262.918 71.5605 262.925 71.2523C262.926 70.8168 263.056 70.3912 263.298 70.0295C263.578 69.6238 263.97 69.3087 264.426 69.1231C265.087 68.879 265.79 68.7683 266.494 68.7973C267.353 68.7421 268.209 68.9496 268.948 69.3922C269.24 69.6177 269.481 69.9026 269.654 70.2282C269.828 70.5538 269.93 70.9126 269.954 71.2806L267.509 71.4223C267.5 71.2663 267.46 71.1137 267.39 70.9739C267.32 70.8341 267.223 70.71 267.103 70.6093C266.984 70.5085 266.845 70.4331 266.696 70.3878C266.547 70.3425 266.389 70.3283 266.234 70.3458C265.992 70.326 265.75 70.3947 265.554 70.5394C265.481 70.5944 265.423 70.6658 265.382 70.7478C265.342 70.8298 265.322 70.9202 265.323 71.0115C265.325 71.0824 265.343 71.1519 265.376 71.2148C265.409 71.2778 265.455 71.3325 265.512 71.3751C265.778 71.5388 266.076 71.6435 266.385 71.6819C267.224 71.8346 268.041 72.085 268.821 72.4279C269.261 72.6334 269.633 72.9612 269.893 73.3721C270.117 73.747 270.233 74.1769 270.228 74.6138C270.222 75.1469 270.058 75.6663 269.756 76.1057C269.45 76.5643 269.017 76.9236 268.509 77.1396C267.865 77.3916 267.176 77.5105 266.484 77.489C265.068 77.489 264.068 77.2152 263.52 76.6675C262.966 76.095 262.642 75.3389 262.609 74.543Z" fill="#231F20"/>
</svg>
