<svg width="61" height="15" viewBox="0 0 61 15" fill="none" xmlns="http://www.w3.org/2000/svg">
<path d="M5.562 2.1H0.411V14H3.165V10.719H5.562C8.741 10.719 10.73 9.07 10.73 6.418C10.73 3.749 8.741 2.1 5.562 2.1ZM5.409 8.475H3.165V4.344H5.409C7.092 4.344 7.942 5.109 7.942 6.418C7.942 7.71 7.092 8.475 5.409 8.475ZM13.4252 3.579C14.4112 3.579 15.0742 2.933 15.0742 2.049C15.0742 1.233 14.4112 0.620999 13.4252 0.620999C12.4392 0.620999 11.7762 1.267 11.7762 2.1C11.7762 2.933 12.4392 3.579 13.4252 3.579ZM12.0992 14H14.7512V4.854H12.0992V14ZM21.2224 14.136C23.1434 14.136 24.6564 13.286 25.3194 11.824L23.2624 10.702C22.7694 11.586 22.0384 11.96 21.2054 11.96C19.8624 11.96 18.8084 11.025 18.8084 9.427C18.8084 7.829 19.8624 6.894 21.2054 6.894C22.0384 6.894 22.7694 7.285 23.2624 8.152L25.3194 7.047C24.6564 5.551 23.1434 4.718 21.2224 4.718C18.2474 4.718 16.1224 6.673 16.1224 9.427C16.1224 12.181 18.2474 14.136 21.2224 14.136ZM31.7542 11.688C31.4652 11.909 31.0742 12.028 30.6832 12.028C29.9692 12.028 29.5442 11.603 29.5442 10.821V7.098H31.8222V5.058H29.5442V2.831H26.8922V5.058H25.4812V7.098H26.8922V10.855C26.8922 13.031 28.1502 14.136 30.3092 14.136C31.1252 14.136 31.9242 13.949 32.4682 13.558L31.7542 11.688ZM40.1089 4.854V9.376C40.1089 11.059 39.2249 11.841 38.0009 11.841C36.8279 11.841 36.1479 11.161 36.1479 9.631V4.854H33.4959V10.022C33.4959 12.844 35.1109 14.136 37.4059 14.136C38.5279 14.136 39.5479 13.711 40.2449 12.912V14H42.7609V4.854H40.1089ZM47.3408 6.061V4.854H44.8078V14H47.4598V9.682C47.4598 7.931 48.4288 7.132 49.8908 7.132C50.0948 7.132 50.2648 7.149 50.4858 7.166V4.718C49.0748 4.718 47.9868 5.177 47.3408 6.061ZM60.5287 9.461C60.5287 6.52 58.4547 4.718 55.7687 4.718C52.9807 4.718 50.8897 6.69 50.8897 9.427C50.8897 12.147 52.9467 14.136 56.1087 14.136C57.7577 14.136 59.0327 13.626 59.8827 12.657L58.4717 11.127C57.8427 11.722 57.1457 12.011 56.1767 12.011C54.7827 12.011 53.8137 11.314 53.5587 10.175H60.4777C60.4947 9.954 60.5287 9.665 60.5287 9.461ZM55.7857 6.724C56.9757 6.724 57.8427 7.472 58.0297 8.628H53.5247C53.7117 7.455 54.5787 6.724 55.7857 6.724Z" fill="#745FB8"/>
</svg>
