<svg width="25" height="25" viewBox="0 0 25 25" fill="none" xmlns="http://www.w3.org/2000/svg">
<path fill-rule="evenodd" clip-rule="evenodd" d="M12.5 25C5.59644 25 0 19.4036 0 12.5C0 5.59644 5.59644 0 12.5 0C19.4036 0 25 5.59644 25 12.5C25 19.4036 19.4036 25 12.5 25ZM12.5 23C18.299 23 23 18.299 23 12.5C23 6.70101 18.299 2 12.5 2C6.70101 2 2 6.70101 2 12.5C2 18.299 6.70101 23 12.5 23ZM18.5158 9.43588C18.6778 9.27688 18.6808 9.01688 18.5228 8.85488L17.6918 8.01304C17.5328 7.85104 17.2808 7.84688 17.1178 8.00488L10.2308 14.9834L7.8762 12.5848C7.7152 12.4258 7.4552 12.4268 7.2962 12.5878L6.4662 13.4248C6.3062 13.5858 6.3072 13.8458 6.4682 14.0058L10.2208 17.7894L18.5158 9.43588Z" fill="#745FB8"/>
</svg>
